<svg width="112" height="155" viewBox="0 0 112 155" fill="none" xmlns="http://www.w3.org/2000/svg">
<path d="M67.2781 57.2614C68.8936 57.2614 70.2033 55.9121 70.2033 54.2476C70.2033 52.5832 68.8936 51.2339 67.2781 51.2339C65.6626 51.2339 64.353 52.5832 64.353 54.2476C64.353 55.9121 65.6626 57.2614 67.2781 57.2614Z" fill="#202244"/>
<path d="M43.8759 57.2614C45.4914 57.2614 46.801 55.9121 46.801 54.2476C46.801 52.5832 45.4914 51.2339 43.8759 51.2339C42.2604 51.2339 40.9508 52.5832 40.9508 54.2476C40.9508 55.9121 42.2604 57.2614 43.8759 57.2614Z" fill="#202244"/>
<path d="M55.5757 84.3846C60.5247 84.3846 64.9586 81.155 66.6086 76.3481C67.1471 74.7788 66.3492 73.0568 64.8261 72.502C63.3038 71.9477 61.6318 72.7693 61.093 74.3385C60.2681 76.7423 58.0506 78.3571 55.5757 78.3571C53.1007 78.3571 50.8832 76.7423 50.0583 74.3385C49.5198 72.7693 47.8484 71.9477 46.3253 72.502C44.8022 73.0568 44.0042 74.7788 44.5428 76.3481C46.1928 81.155 50.6267 84.3846 55.5757 84.3846Z" fill="#202244"/>
<path d="M84.83 154.304C86.4455 154.304 87.7551 152.955 87.7551 151.29C87.7551 149.626 86.4455 148.277 84.83 148.277C83.2145 148.277 81.9049 149.626 81.9049 151.29C81.9049 152.955 83.2145 154.304 84.83 154.304Z" fill="#202244"/>
<path d="M97.9912 148.277C96.3757 148.277 95.0661 149.626 95.0661 151.29C95.0661 152.955 96.3757 154.304 97.9912 154.304H108.229C109.845 154.304 111.154 152.955 111.154 151.29V126.391C111.154 112.883 101.505 101.448 88.5513 99.5415L76.7988 97.8119C73.6151 97.3406 71.0059 94.8711 70.3586 91.5508C76.5238 87.3726 82.145 80.6552 86.4309 72.33H87.7533C94.205 72.33 99.4538 66.9222 99.4538 60.275C99.4538 55.7695 96.9581 51.6789 93.1648 49.6317C93.1648 49.6317 93.6036 39.2225 93.6036 39.1788C93.6036 17.5753 76.5449 0 55.5771 0C34.6093 0 17.5507 17.5753 17.5507 39.1788C17.5507 39.2225 17.5515 39.2662 17.5533 39.3099L17.9891 49.6317C14.1962 51.6789 11.7004 55.7695 11.7004 60.275C11.7004 66.9222 16.9493 72.33 23.4009 72.33H24.7233C29.0095 80.6558 34.631 87.3732 40.7957 91.5508C40.1524 94.8473 37.554 97.3382 34.3578 97.8116L22.6041 99.5415C9.62742 101.451 0 112.905 0 126.391V151.29C0 152.955 1.30957 154.304 2.92511 154.304H71.6652C73.2808 154.304 74.5903 152.955 74.5903 151.29C74.5903 149.626 73.2808 148.277 71.6652 148.277H58.5022V124.621L74.8542 103.559C75.2219 103.645 75.5931 103.723 75.9701 103.778L81.9031 104.652V124.685C78.4986 125.929 76.0529 129.279 76.0529 133.208C76.0529 138.193 79.9895 142.249 84.8282 142.249C89.667 142.249 93.6036 138.193 93.6036 133.208C93.6036 129.279 91.1579 125.929 87.7533 124.685V105.514C97.761 107.002 105.304 115.971 105.304 126.391V148.277H97.9912ZM55.5771 118.739L41.7109 100.879C43.7453 99.213 45.2641 96.9813 46.0913 94.4513C49.213 95.7704 52.3899 96.4401 55.5771 96.4401C58.7643 96.4401 61.941 95.7701 65.0627 94.4516C65.8905 96.9837 67.4095 99.2166 69.4427 100.881L55.5771 118.739ZM55.5771 6.0275C73.2986 6.0275 87.72 20.8639 87.7533 39.1146L87.3903 47.7074C84.195 46.5103 81.9031 43.3474 81.9031 39.6519V39.1788C81.9031 37.5146 80.5936 36.165 78.978 36.165H68.6641C61.7067 36.165 55.4528 32.1842 52.3431 25.776C51.7365 24.5259 50.3745 23.8701 49.0547 24.1905C47.7346 24.5117 46.8018 25.726 46.8018 27.1238C46.8018 32.1091 42.8652 36.165 38.0265 36.165H32.1762C30.5607 36.165 29.2511 37.5146 29.2511 39.1788V39.6519C29.2511 43.3492 26.9567 46.5136 23.7648 47.7092L23.4009 39.1146C23.4342 20.8639 37.8556 6.0275 55.5771 6.0275ZM29.1312 67.9779C28.6374 66.952 27.6218 66.3025 26.5103 66.3025H23.4009C20.1751 66.3025 17.5507 63.5986 17.5507 60.275C17.5507 55.4756 21.9901 54.5501 22.5959 54.1442C28.8062 53.3913 33.8079 48.4741 34.8858 42.1925H38.0265C43.6087 42.1925 48.4709 38.9533 50.935 34.2037C55.4203 39.2424 61.7813 42.1925 68.6641 42.1925H76.2685C77.3458 48.4696 82.3428 53.3847 88.5563 54.1427C89.1457 54.5387 93.6036 55.497 93.6036 60.275C93.6036 63.5986 90.9792 66.3025 87.7533 66.3025H84.644C83.5324 66.3025 82.5168 66.9517 82.0231 67.9779C76.8757 78.677 67.1772 90.4126 55.5771 90.4126C44.0106 90.4126 34.3569 78.8404 29.1312 67.9779ZM5.85022 148.277V126.391C5.85022 115.972 13.3926 107.003 23.4009 105.514V114.826C16.7331 116.226 11.7004 122.314 11.7004 129.591V139.235C11.7004 140.9 13.01 142.249 14.6256 142.249H20.4758C22.0913 142.249 23.4009 140.9 23.4009 139.235C23.4009 137.571 22.0913 136.222 20.4758 136.222H17.5507V129.591C17.5507 124.606 21.4873 120.55 26.326 120.55C31.1647 120.55 35.1013 124.606 35.1013 129.591V136.222H32.1762C30.5607 136.222 29.2511 137.571 29.2511 139.235C29.2511 140.9 30.5607 142.249 32.1762 142.249H38.0265C39.642 142.249 40.9516 140.9 40.9516 139.235V129.591C40.9516 122.314 35.9189 116.226 29.2511 114.826V104.652L35.1862 103.778C35.5623 103.722 35.9327 103.646 36.2992 103.559L52.652 124.621V148.277H5.85022ZM84.8282 136.222C83.2153 136.222 81.9031 134.87 81.9031 133.208C81.9031 131.546 83.2153 130.194 84.8282 130.194C86.4411 130.194 87.7533 131.546 87.7533 133.208C87.7533 134.87 86.4411 136.222 84.8282 136.222Z" fill="#202244"/>
</svg>
